<svg width="2063" height="470" viewBox="0 0 2063 470" fill="none" xmlns="http://www.w3.org/2000/svg">
<rect width="2062.79" height="469.624" rx="97.6996" fill="#002A25"/>
<path d="M1866.88 288.92C1866.88 274.617 1876.02 265.902 1890.74 265.902C1905.46 265.902 1914.6 274.617 1914.6 288.92C1914.6 303.222 1905.46 311.938 1890.74 311.938C1876.02 311.938 1866.88 303.222 1866.88 288.92Z" fill="white"/>
<path d="M1794.97 311.937C1759.29 311.937 1733.64 286.684 1733.64 252.716C1733.64 218.748 1759.29 193.496 1794.97 193.496C1830.66 193.496 1856.3 218.748 1856.3 252.716C1856.3 286.684 1830.66 311.937 1794.97 311.937ZM1794.97 231.039C1784.72 231.039 1776.02 239.308 1776.02 252.716C1776.02 266.125 1784.72 274.393 1794.97 274.393C1805.23 274.393 1813.93 266.125 1813.93 252.716C1813.93 239.308 1805.23 231.039 1794.97 231.039Z" fill="white"/>
<path d="M1590.47 228.134C1590.47 182.098 1625.71 144.331 1676.11 144.331C1696.63 144.331 1710.68 149.024 1721.83 154.834V197.295C1713.13 192.825 1699.52 187.015 1680.79 187.015C1652.24 187.015 1637.3 206.904 1637.3 228.134C1637.3 249.811 1651.8 269.254 1678.34 269.254C1698.63 269.254 1713.57 263.667 1722.94 258.974V301.881C1711.79 307.692 1693.28 311.938 1673.88 311.938C1625.71 311.938 1590.47 274.841 1590.47 228.134Z" fill="white"/>
<path d="M1370.65 265.455C1370.65 246.906 1382.91 233.274 1398.97 224.335C1390.5 214.502 1384.92 204.669 1384.92 186.791C1384.92 164.667 1407.22 144.331 1434.21 144.331C1461.19 144.331 1483.5 164.667 1483.5 186.791C1483.5 212.714 1466.1 224.782 1454.5 230.593L1470.78 247.577C1471.9 241.543 1472.34 235.286 1471.9 229.252H1510.26C1511.82 247.8 1508.7 265.455 1500 278.416L1528.99 308.586H1480.37L1474.35 302.328C1463.42 308.586 1450.49 311.938 1435.32 311.938C1389.83 311.938 1370.65 289.59 1370.65 265.455ZM1435.55 276.852C1439.78 276.852 1444.02 276.182 1447.59 274.841L1420.83 247.13C1415.48 251.152 1412.58 255.845 1412.58 261.656C1412.58 269.924 1419.94 276.852 1435.55 276.852ZM1423.06 190.814C1423.06 197.071 1426.4 201.317 1431.53 206.681C1438.22 202.882 1445.36 197.295 1445.36 190.814C1445.36 184.333 1440.45 179.417 1434.21 179.417C1427.96 179.417 1423.06 184.333 1423.06 190.814Z" fill="white"/>
<path d="M1243.64 281.338C1243.64 285.584 1259.7 286.701 1277.32 290.277C1299.62 294.746 1308.99 305.249 1308.99 321.787C1308.99 346.816 1282.89 361.118 1245.65 361.118C1214.43 361.118 1189.67 351.286 1189.67 332.29C1189.67 320.222 1200.38 311.283 1215.1 307.484C1207.51 305.92 1200.15 300.78 1200.15 291.394C1200.15 284.019 1206.4 275.751 1219.78 271.281C1204.39 265.024 1194.13 252.509 1194.13 235.301C1194.13 209.378 1217.33 193.511 1245.43 193.511C1252.79 193.511 1259.7 194.629 1265.94 196.864H1308.09V228.374H1297.61L1294.49 227.927C1294.94 230.385 1295.16 232.843 1295.16 235.301C1295.16 256.532 1279.55 270.611 1258.81 274.857C1250.33 276.868 1243.64 278.432 1243.64 281.338ZM1246.99 334.078C1255.46 334.078 1264.16 330.726 1264.16 325.139C1264.16 321.563 1261.93 318.882 1257.25 317.764C1254.79 317.094 1249.44 316.423 1245.87 316.423C1238.29 316.423 1232.49 320.222 1232.49 325.362C1232.49 331.173 1238.96 334.078 1246.99 334.078ZM1245.43 248.487C1252.34 248.487 1256.13 243.347 1256.13 236.419C1256.13 229.491 1252.34 224.128 1245.43 224.128C1238.74 224.128 1234.72 229.491 1234.72 236.419C1234.72 243.347 1238.74 248.487 1245.43 248.487Z" fill="white"/>
<path d="M1172.2 238.877V308.601H1126.71V245.581C1126.71 238.653 1122.92 234.407 1117.34 234.407C1107.75 234.407 1101.95 241.558 1101.95 252.285V308.601H1056.46V196.864H1097.49L1098.83 206.92C1099.28 210.049 1098.61 212.06 1097.94 213.848H1098.38C1103.51 203.344 1118.46 193.511 1132.95 193.511C1155.7 193.511 1172.2 207.814 1172.2 238.877Z" fill="white"/>
<path d="M990.938 165.127C990.938 150.825 1000.08 142.109 1014.8 142.109C1029.52 142.109 1038.66 150.825 1038.66 165.127C1038.66 179.43 1029.52 188.145 1014.8 188.145C1000.08 188.145 990.938 179.43 990.938 165.127ZM1037.55 308.599H992.053V196.861H1037.55V308.599Z" fill="white"/>
<path d="M973.472 238.875V308.598H927.977V245.579C927.977 238.651 924.185 234.405 918.61 234.405C909.02 234.405 903.222 241.556 903.222 252.283V308.598H857.727V147.697H902.107V209.823C908.574 201.107 921.509 193.509 934.221 193.509C956.969 193.509 973.472 207.812 973.472 238.875Z" fill="white"/>
<path d="M753.367 231.724V196.862H766.748V163.341H810.905V196.862H836.552V231.724H810.905V264.128C810.905 272.62 817.373 274.855 823.171 274.855C830.085 274.855 836.329 272.397 840.12 270.609V307.035C834.991 309.27 823.84 311.952 808.675 311.952C786.151 311.952 766.079 300.554 766.079 269.938V231.724H753.367Z" fill="white"/>
<path d="M682.122 191.274C718.028 191.274 735.423 215.857 735.423 243.791C735.423 250.942 734.531 257.646 734.085 259.658H670.525C672.532 268.373 681.007 271.949 693.719 271.949C710.222 271.949 727.617 267.032 730.739 265.915V303.458C725.387 305.693 710.445 309.716 689.258 309.716C647.778 309.716 623.469 284.463 623.469 250.495C623.469 216.527 648.893 191.274 682.122 191.274ZM692.827 240.215C693.273 231.947 689.481 225.913 681.676 225.913C673.87 225.913 670.079 231.947 670.079 240.215H692.827Z" fill="white"/>
<path d="M605.157 236.64V306.364H559.662V242.227C559.662 235.97 556.317 232.17 551.41 232.17C542.489 232.17 537.137 238.875 537.137 248.931V306.364H491.641V242.227C491.641 235.97 488.296 232.17 483.39 232.17C474.469 232.17 469.117 238.875 469.117 248.931V306.364H423.621V194.627H464.656L465.994 204.683C466.44 207.812 465.771 209.823 465.102 211.611H465.548C470.455 201.107 484.951 191.274 499.001 191.274C513.274 191.274 525.317 197.308 531.785 210.27C541.374 198.202 553.863 191.274 567.021 191.274C589.1 191.274 605.157 205.577 605.157 236.64Z" fill="white"/>
<path d="M345.068 309.716C309.385 309.716 283.738 284.463 283.738 250.495C283.738 216.527 309.385 191.274 345.068 191.274C380.75 191.274 406.397 216.527 406.397 250.495C406.397 284.463 380.75 309.716 345.068 309.716ZM345.068 228.818C334.809 228.818 326.111 237.087 326.111 250.495C326.111 263.904 334.809 272.172 345.068 272.172C355.326 272.172 364.024 263.904 364.024 250.495C364.024 237.087 355.326 228.818 345.068 228.818Z" fill="white"/>
<path d="M220.577 209.152C246.447 219.879 266.073 230.829 266.073 260.775C266.073 291.391 243.325 309.716 201.398 309.716C183.333 309.716 164.823 306.364 152.334 301.001V256.306C167.276 264.574 185.118 269.044 198.945 269.044C212.995 269.044 220.577 266.586 220.577 260.775C220.577 254.071 210.096 250.942 192.923 244.238C167.053 234.181 148.766 223.455 148.766 192.615C148.766 162.446 173.521 142.109 211.657 142.109C227.714 142.109 244.217 145.015 255.368 149.708V192.615C245.555 186.134 230.613 182.335 215.671 182.335C202.513 182.335 194.484 186.134 194.484 192.615C194.484 198.425 204.297 202.448 220.577 209.152Z" fill="white"/>
</svg>
